<svg width="270" height="240" viewBox="0 0 270 240" fill="none" xmlns="http://www.w3.org/2000/svg">
<g clip-path="url(#clip0_32_60)">
<path d="M232.037 198.304C227.481 211.652 221.623 224.971 214.117 237.648C213.95 237.933 213.782 238.213 213.612 238.497L195.03 232.617C195.137 232.348 195.254 232.047 195.38 231.718C202.875 212.329 248.092 94.1997 246.063 70.9087C246.281 72.8152 253.355 135.908 232.037 198.304Z" fill="#E6E6E6"/>
<path d="M217.702 238.782C217.449 239.04 217.19 239.297 216.929 239.547L202.99 235.136C203.178 234.908 203.398 234.639 203.65 234.335C207.778 229.292 220.052 214.192 232.037 198.304C244.917 181.231 257.466 163.25 259.225 155.861C258.871 157.541 247.872 208.686 217.702 238.782Z" fill="#E6E6E6"/>
<path d="M224.669 42.0908C224.664 42.0908 224.659 42.0923 224.654 42.0925V12.2018C224.654 8.9657 223.369 5.86212 221.081 3.57383C218.794 1.28555 215.691 0 212.456 0H118.906C115.671 0 112.569 1.28555 110.281 3.57383C107.994 5.86212 106.708 8.9657 106.708 12.2018V27.5253C106.45 27.5309 106.204 27.6373 106.024 27.8219C105.843 28.0065 105.741 28.2545 105.741 28.5129V36.1028C105.741 36.3612 105.843 36.6093 106.024 36.7938C106.204 36.9784 106.45 37.0848 106.708 37.0903V45.0414H106.659C106.529 45.0414 106.4 45.067 106.28 45.1167C106.16 45.1665 106.051 45.2394 105.959 45.3313C105.867 45.4232 105.794 45.5323 105.745 45.6524C105.695 45.7725 105.669 45.9012 105.669 46.0312V60.7081C105.669 60.8381 105.695 60.9668 105.745 61.0869C105.794 61.207 105.867 61.3161 105.959 61.408C106.051 61.4999 106.16 61.5728 106.28 61.6226C106.4 61.6723 106.529 61.6979 106.659 61.6979H106.708V67.5271H106.693C106.563 67.5271 106.434 67.5527 106.314 67.6024C106.194 67.6522 106.085 67.7251 105.993 67.817C105.902 67.9089 105.829 68.018 105.779 68.1381C105.729 68.2582 105.704 68.3869 105.704 68.5169V83.3374C105.704 83.4674 105.729 83.5961 105.779 83.7162C105.829 83.8363 105.902 83.9454 105.993 84.0373C106.085 84.1292 106.194 84.2021 106.314 84.2518C106.434 84.3016 106.563 84.3272 106.693 84.3272H106.708V227.585C106.708 230.822 107.994 233.925 110.281 236.213C112.569 238.502 115.671 239.787 118.906 239.787H212.456C215.691 239.787 218.794 238.502 221.081 236.213C223.369 233.925 224.654 230.822 224.654 227.585V71.1563C224.659 71.1563 224.664 71.1578 224.669 71.1578C224.901 71.1578 225.13 71.1122 225.344 71.0237C225.557 70.9351 225.752 70.8053 225.915 70.6417C226.079 70.478 226.209 70.2837 226.297 70.0699C226.386 69.8561 226.431 69.6269 226.431 69.3955V43.8533C226.431 43.3859 226.246 42.9376 225.915 42.6071C225.585 42.2765 225.137 42.0908 224.669 42.0908Z" fill="#3F3D56"/>
<path d="M217.371 15.6174V224.167C217.37 226.651 216.383 229.034 214.626 230.791C212.869 232.547 210.487 233.534 208.003 233.534H123.36C120.876 233.534 118.493 232.547 116.737 230.791C114.98 229.034 113.993 226.651 113.992 224.167V15.6174C113.992 13.132 114.979 10.7485 116.736 8.99105C118.492 7.23364 120.875 6.24634 123.36 6.24634H136.026V7.8908C136.027 9.93702 136.84 11.8992 138.286 13.3461C139.732 14.793 141.694 15.6062 143.74 15.6071H186.803C188.846 15.6026 190.803 14.7876 192.246 13.341C193.689 11.8944 194.5 9.93434 194.5 7.8908V6.26343H208.003C210.485 6.26343 212.865 7.24838 214.621 9.0021C216.377 10.7558 217.366 13.135 217.371 15.6174Z" fill="white"/>
<path d="M80.115 117.021C79.6145 116.827 79.0775 116.745 78.542 116.781C78.0065 116.817 77.4854 116.971 77.0154 117.23C76.5454 117.489 76.1381 117.849 75.822 118.283C75.5059 118.717 75.2887 119.215 75.1858 119.742L45.0229 136.148L50.3263 142.119L78.3379 124.136C79.2344 124.25 80.1416 124.031 80.8876 123.521C81.6336 123.011 82.1667 122.245 82.3857 121.368C82.6048 120.491 82.4946 119.564 82.0761 118.763C81.6576 117.962 80.9598 117.342 80.115 117.021Z" fill="#FFB8B8"/>
<path d="M72.4226 235.063L76.1811 232.631L68.5927 216.972L63.0454 220.561L72.4226 235.063Z" fill="#FFB8B8"/>
<path d="M85.687 231.432L73.8744 239.075L70.9224 234.51L78.3416 229.709C79.5068 228.955 80.9237 228.695 82.2805 228.986C83.6373 229.278 84.823 230.096 85.5766 231.261L85.687 231.432Z" fill="#2F2E41"/>
<path d="M30.2505 235.628H34.7267L36.8569 218.357H30.2505V235.628Z" fill="#FFB8B8"/>
<path d="M43.3599 239.786H29.2916V234.349H38.1276C38.8147 234.349 39.4951 234.484 40.1299 234.748C40.7647 235.011 41.3415 235.396 41.8274 235.882C42.3132 236.368 42.6986 236.945 42.9616 237.58C43.2245 238.215 43.3599 238.896 43.3599 239.583V239.786Z" fill="#2F2E41"/>
<path d="M132.949 33.8439H123.722C123.495 33.8439 123.278 33.7539 123.117 33.5936C122.957 33.4333 122.867 33.2159 122.867 32.9892C122.867 32.7625 122.957 32.5451 123.117 32.3849C123.278 32.2246 123.495 32.1345 123.722 32.1345H132.949C133.176 32.1345 133.393 32.2246 133.554 32.3849C133.714 32.5451 133.804 32.7625 133.804 32.9892C133.804 33.2159 133.714 33.4333 133.554 33.5936C133.393 33.7539 133.176 33.8439 132.949 33.8439Z" fill="#3F3D56"/>
<path d="M132.949 36.237H123.722C123.495 36.237 123.278 36.147 123.117 35.9867C122.957 35.8264 122.867 35.609 122.867 35.3823C122.867 35.1556 122.957 34.9382 123.117 34.7779C123.278 34.6176 123.495 34.5276 123.722 34.5276H132.949C133.176 34.5276 133.393 34.6176 133.554 34.7779C133.714 34.9382 133.804 35.1556 133.804 35.3823C133.804 35.609 133.714 35.8264 133.554 35.9867C133.393 36.147 133.176 36.237 132.949 36.237Z" fill="#3F3D56"/>
<path d="M132.949 38.6303H123.722C123.495 38.6303 123.278 38.5403 123.117 38.38C122.957 38.2197 122.867 38.0023 122.867 37.7756C122.867 37.5489 122.957 37.3315 123.117 37.1712C123.278 37.0109 123.495 36.9209 123.722 36.9209H132.949C133.176 36.9209 133.393 37.0109 133.554 37.1712C133.714 37.3315 133.804 37.5489 133.804 37.7756C133.804 38.0023 133.714 38.2197 133.554 38.38C133.393 38.5403 133.176 38.6303 132.949 38.6303Z" fill="#3F3D56"/>
<path d="M204.48 36.2542H204.169L204.049 36.1551C204.442 35.6866 204.657 35.0947 204.657 34.4833C204.655 33.9802 204.503 33.4892 204.221 33.0725C203.94 32.6557 203.541 32.3318 203.075 32.1418C202.609 31.9518 202.098 31.9042 201.605 32.005C201.112 32.1058 200.661 32.3504 200.307 32.7081C199.953 33.0657 199.713 33.5202 199.618 34.0142C199.523 34.5081 199.576 35.0193 199.771 35.483C199.966 35.9467 200.294 36.3422 200.713 36.6195C201.133 36.8967 201.625 37.0433 202.128 37.0406C202.738 37.0362 203.327 36.8212 203.796 36.432L203.912 36.5312V36.8457L205.874 38.8115L206.462 38.2235L204.48 36.2542ZM202.128 36.2542C201.778 36.2556 201.435 36.1531 201.143 35.9596C200.852 35.7661 200.624 35.4904 200.488 35.1673C200.353 34.8442 200.317 34.4883 200.384 34.1445C200.451 33.8007 200.618 33.4845 200.865 33.2359C201.111 32.9873 201.426 32.8174 201.769 32.7477C202.112 32.678 202.468 32.7117 202.793 32.8445C203.117 32.9773 203.394 33.2032 203.59 33.4937C203.785 33.7842 203.89 34.1262 203.892 34.4764L203.892 34.4833C203.893 34.7145 203.849 34.9437 203.762 35.1578C203.674 35.372 203.546 35.5668 203.383 35.7313C203.221 35.8957 203.028 36.0265 202.815 36.1163C202.602 36.206 202.373 36.2529 202.142 36.2542C202.137 36.2542 202.133 36.2542 202.128 36.2542Z" fill="#3F3D56"/>
<path d="M151.749 65.2971H135.171C134.174 65.2971 133.218 64.9009 132.513 64.1956C131.808 63.4903 131.412 62.5338 131.412 61.5364C131.412 60.539 131.808 59.5824 132.513 58.8771C133.218 58.1719 134.174 57.7756 135.171 57.7756H151.749C152.746 57.7756 153.702 58.1719 154.407 58.8771C155.112 59.5824 155.508 60.539 155.508 61.5364C155.508 62.5338 155.112 63.4903 154.407 64.1956C153.702 64.9009 152.746 65.2971 151.749 65.2971Z" fill="#830A0A"/>
<path d="M202.5 73.5025H133.462C132.918 73.5025 132.397 73.2864 132.012 72.9017C131.628 72.517 131.412 71.9952 131.412 71.4512C131.412 70.9072 131.628 70.3854 132.012 70.0007C132.397 69.616 132.918 69.3999 133.462 69.3999H202.5C203.044 69.3999 203.566 69.616 203.95 70.0007C204.335 70.3854 204.551 70.9072 204.551 71.4512C204.551 71.9952 204.335 72.517 203.95 72.9017C203.566 73.2864 203.044 73.5025 202.5 73.5025Z" fill="#E6E6E6"/>
<path d="M158.822 81.7076H133.462C132.918 81.7076 132.397 81.4915 132.012 81.1068C131.628 80.7221 131.412 80.2003 131.412 79.6563C131.412 79.1122 131.628 78.5905 132.012 78.2058C132.397 77.8211 132.918 77.605 133.462 77.605H158.822C159.366 77.605 159.887 77.8211 160.272 78.2058C160.656 78.5905 160.872 79.1122 160.872 79.6563C160.872 80.2003 160.656 80.7221 160.272 81.1068C159.887 81.4915 159.366 81.7076 158.822 81.7076Z" fill="#E6E6E6"/>
<path d="M151.749 156.238H135.171C134.174 156.238 133.218 155.842 132.513 155.137C131.808 154.432 131.412 153.475 131.412 152.478C131.412 151.48 131.808 150.524 132.513 149.819C133.218 149.113 134.174 148.717 135.171 148.717H151.749C152.746 148.717 153.702 149.113 154.407 149.819C155.112 150.524 155.508 151.48 155.508 152.478C155.508 153.475 155.112 154.432 154.407 155.137C153.702 155.842 152.746 156.238 151.749 156.238Z" fill="#830A0A"/>
<path d="M202.5 164.444H133.462C132.918 164.444 132.397 164.228 132.012 163.843C131.628 163.458 131.412 162.936 131.412 162.392C131.412 161.848 131.628 161.327 132.012 160.942C132.397 160.557 132.918 160.341 133.462 160.341H202.5C203.044 160.341 203.566 160.557 203.95 160.942C204.335 161.327 204.551 161.848 204.551 162.392C204.551 162.936 204.335 163.458 203.95 163.843C203.566 164.228 203.044 164.444 202.5 164.444Z" fill="#E6E6E6"/>
<path d="M158.822 172.649H133.462C132.918 172.649 132.397 172.433 132.012 172.048C131.628 171.663 131.412 171.141 131.412 170.597C131.412 170.053 131.628 169.532 132.012 169.147C132.397 168.762 132.918 168.546 133.462 168.546H158.822C159.366 168.546 159.887 168.762 160.272 169.147C160.656 169.532 160.872 170.053 160.872 170.597C160.872 171.141 160.656 171.663 160.272 172.048C159.887 172.433 159.366 172.649 158.822 172.649Z" fill="#E6E6E6"/>
<path d="M151.749 198.29H135.171C134.174 198.29 133.218 197.894 132.513 197.189C131.808 196.483 131.412 195.527 131.412 194.529C131.412 193.532 131.808 192.575 132.513 191.87C133.218 191.165 134.174 190.769 135.171 190.769H151.749C152.746 190.769 153.702 191.165 154.407 191.87C155.112 192.575 155.508 193.532 155.508 194.529C155.508 195.527 155.112 196.483 154.407 197.189C153.702 197.894 152.746 198.29 151.749 198.29Z" fill="#830A0A"/>
<path d="M202.5 206.495H133.462C132.918 206.495 132.397 206.279 132.012 205.895C131.628 205.51 131.412 204.988 131.412 204.444C131.412 203.9 131.628 203.378 132.012 202.994C132.397 202.609 132.918 202.393 133.462 202.393H202.5C203.044 202.393 203.566 202.609 203.95 202.994C204.335 203.378 204.551 203.9 204.551 204.444C204.551 204.988 204.335 205.51 203.95 205.895C203.566 206.279 203.044 206.495 202.5 206.495Z" fill="#E6E6E6"/>
<path d="M158.822 214.701H133.462C132.918 214.701 132.397 214.484 132.012 214.1C131.628 213.715 131.412 213.193 131.412 212.649C131.412 212.105 131.628 211.583 132.012 211.199C132.397 210.814 132.918 210.598 133.462 210.598H158.822C159.366 210.598 159.887 210.814 160.272 211.199C160.656 211.583 160.872 212.105 160.872 212.649C160.872 213.193 160.656 213.715 160.272 214.1C159.887 214.484 159.366 214.701 158.822 214.701Z" fill="#E6E6E6"/>
<path d="M212.241 134.871H80.3167C79.5465 134.87 78.8081 134.563 78.2635 134.018C77.7189 133.474 77.4125 132.735 77.4116 131.964V96.0667C77.4125 95.2962 77.7188 94.5575 78.2634 94.0127C78.8081 93.4679 79.5465 93.1615 80.3167 93.1606H212.241C213.011 93.1615 213.749 93.468 214.294 94.0128C214.839 94.5576 215.145 95.2962 215.146 96.0667V131.964C215.145 132.735 214.839 133.474 214.294 134.018C213.749 134.563 213.011 134.87 212.241 134.871Z" fill="#830A0A"/>
<path d="M32.8894 177.579C34.1505 186.43 27.4723 225.644 28.2139 225.641L37.8041 225.59C38.1458 224.933 42.5478 203.774 43.9286 200.379C45.8562 195.668 47.8009 190.899 48.5596 185.866C49.2739 181.141 48.9219 176.327 48.4571 171.572C48.4787 171.43 48.4664 171.286 48.4211 171.15C48.3759 171.014 48.299 170.891 48.1968 170.791C48.0947 170.691 47.9702 170.616 47.8336 170.574C47.697 170.531 47.5522 170.522 47.4113 170.546L34.5435 169.883C31.8914 169.746 31.2625 169.165 31.6658 171.77C31.9461 173.716 32.6091 175.61 32.8894 177.579Z" fill="#2F2E41"/>
<path d="M35.4184 156.057C32.8038 159.818 30.0628 164.146 30.9309 168.649C31.5905 172.068 34.1948 174.717 36.6521 177.196C46.4747 187.063 65.8429 230.598 65.8429 230.598C75.1898 224.615 65.6202 230.769 75.1049 224.444C74.2642 224.379 55.1625 155.691 53.5801 155.599C47.1787 155.175 41.6557 154.55 35.4184 156.057Z" fill="#2F2E41"/>
<path d="M45.76 120.262C44.432 119.078 35.0993 115.424 35.0993 115.424C34.9278 115.401 34.7536 115.407 34.5837 115.44C34.0526 115.574 33.8103 116.234 33.9237 116.768C34.0372 117.302 33.1064 126.075 32.8667 130.065C32.4464 137.028 36.5457 152.802 36.5096 153.284C36.3691 155.004 35.6162 156.616 34.3878 157.828C34.7071 158.224 54.9847 159.02 56.364 159.489C56.6424 159.136 54.7939 134.117 54.7088 132.703C54.567 130.558 47.5132 121.887 45.76 120.262Z" fill="#E6E6E6"/>
<path d="M31.2969 174.549C31.7774 174.31 32.1997 173.968 32.5339 173.548C32.8682 173.128 33.1063 172.64 33.2314 172.118C33.3566 171.595 33.3658 171.052 33.2584 170.526C33.151 170 32.9296 169.504 32.6098 169.073L41.1654 121.708L33.1816 121.603L27.2402 168.44C26.5516 169.026 26.1017 169.844 25.9756 170.739C25.8495 171.634 26.056 172.544 26.5561 173.297C27.0561 174.05 27.8149 174.593 28.6886 174.824C29.5624 175.055 30.4904 174.957 31.2969 174.549Z" fill="#FFB8B8"/>
<path d="M31.2281 125.223C30.8952 125.247 30.5635 125.16 30.2848 124.977C29.8098 124.57 33.6855 118.344 34.451 118.252C36.9426 117.965 39.5059 117.869 41.9222 118.542C44.3385 119.216 46.6113 120.747 47.6913 123.014C48.1424 123.958 44.8717 128.707 43.385 128.009C41.6043 127.175 33.5727 125.281 31.2281 125.223Z" fill="#E6E6E6"/>
<path d="M40.0224 114.914C44.9751 114.914 48.9901 110.897 48.9901 105.943C48.9901 100.989 44.9751 96.9724 40.0224 96.9724C35.0697 96.9724 31.0547 100.989 31.0547 105.943C31.0547 110.897 35.0697 114.914 40.0224 114.914Z" fill="#FFB8B8"/>
<path d="M31.2142 120.775C32.4604 120.906 33.7193 120.722 34.8759 120.239C36.0325 119.757 37.0498 118.993 37.8348 118.016C38.6197 117.039 39.1471 115.881 39.3689 114.647C39.5907 113.413 39.4997 112.144 39.1042 110.955C38.7473 109.881 38.1508 108.897 37.824 107.815C37.4971 106.732 37.4882 105.451 38.2131 104.583C39.6313 102.885 42.3649 103.953 44.5514 103.616C46.8811 103.256 48.6684 101.02 48.8549 98.6692C49.0413 96.3184 47.8164 93.9922 45.9931 92.4976C44.1697 91.003 41.8181 90.267 39.472 90.0364C36.4591 89.7403 33.4207 90.2251 30.6494 91.4442C27.8781 92.6633 25.4672 94.5756 23.649 96.997C21.8307 99.4183 20.6662 102.267 20.2677 105.269C19.8692 108.271 20.2501 111.325 21.3736 114.138C22.3538 116.591 23.9548 118.876 26.2288 120.219C28.5028 121.563 31.5062 121.821 33.7726 120.465" fill="#2F2E41"/>
<path d="M127.234 109.571H104.317C102.861 109.571 101.677 107.884 101.677 105.811C101.677 103.737 102.861 102.05 104.317 102.05H127.234C128.689 102.05 129.873 103.737 129.873 105.811C129.873 107.884 128.689 109.571 127.234 109.571Z" fill="white"/>
<path d="M188.829 117.776H103.728C103.184 117.776 102.662 117.56 102.278 117.176C101.893 116.791 101.677 116.269 101.677 115.725C101.677 115.181 101.893 114.659 102.278 114.275C102.662 113.89 103.184 113.674 103.728 113.674H188.829C189.373 113.674 189.895 113.89 190.279 114.275C190.664 114.659 190.88 115.181 190.88 115.725C190.88 116.269 190.664 116.791 190.279 117.176C189.895 117.56 189.373 117.776 188.829 117.776Z" fill="#E6E6E6"/>
<path d="M145.151 125.982H103.728C103.184 125.982 102.662 125.765 102.278 125.381C101.893 124.996 101.677 124.474 101.677 123.93C101.677 123.386 101.893 122.864 102.278 122.48C102.662 122.095 103.184 121.879 103.728 121.879H145.151C145.695 121.879 146.216 122.095 146.601 122.48C146.985 122.864 147.201 123.386 147.201 123.93C147.201 124.474 146.985 124.996 146.601 125.381C146.216 125.765 145.695 125.982 145.151 125.982Z" fill="#E6E6E6"/>
<path d="M270 239.316H0V240H270V239.316Z" fill="#3F3D56"/>
</g>
<defs>
<clipPath id="clip0_32_60">
<rect width="270" height="240" fill="white"/>
</clipPath>
</defs>
</svg>
